<svg width="10" height="16" viewBox="0 0 10 16" fill="none" xmlns="http://www.w3.org/2000/svg">
<path d="M0.586584 7.37568L7.65639 0.255608C7.81991 0.090796 8.03819 0 8.27093 0C8.50368 0 8.72196 0.090796 8.88548 0.255608L9.40612 0.779831C9.7449 1.12142 9.7449 1.6766 9.40612 2.01767L3.46943 7.99668L9.41271 13.9823C9.57622 14.1471 9.6665 14.3668 9.6665 14.6011C9.6665 14.8357 9.57622 15.0554 9.41271 15.2203L8.89206 15.7444C8.72842 15.9092 8.51027 16 8.27752 16C8.04478 16 7.8265 15.9092 7.66298 15.7444L0.586584 8.61782C0.42268 8.45248 0.332656 8.23174 0.333173 7.99707C0.332656 7.7615 0.42268 7.54088 0.586584 7.37568Z" fill="#F7F7F7"/>
</svg>
