<svg width="19" height="23" viewBox="0 0 19 23" fill="none" xmlns="http://www.w3.org/2000/svg">
<path d="M18.1678 15.8559C16.7503 14.6578 15.9375 12.9066 15.9375 11.0513V8.4375C15.9375 5.13844 13.4869 2.4075 10.3125 1.95V0.9375C10.3125 0.419063 9.8925 0 9.375 0C8.8575 0 8.4375 0.419063 8.4375 0.9375V1.95C5.26219 2.4075 2.8125 5.13844 2.8125 8.4375V11.0513C2.8125 12.9066 1.99969 14.6578 0.57375 15.8634C0.209063 16.1756 0 16.6294 0 17.1094C0 18.0141 0.735938 18.75 1.64063 18.75H17.1094C18.0141 18.75 18.75 18.0141 18.75 17.1094C18.75 16.6294 18.5409 16.1756 18.1678 15.8559Z" fill="#F7F7F7"/>
<path d="M9.37406 22.5C11.0719 22.5 12.4922 21.2897 12.8184 19.6875H5.92969C6.25594 21.2897 7.67625 22.5 9.37406 22.5Z" fill="#F7F7F7"/>
</svg>
