<svg width="8" height="8" viewBox="0 0 8 8" fill="none" xmlns="http://www.w3.org/2000/svg">
<g clip-path="url(#clip0_233_500)">
<path d="M4.73292 4.00657L7.84796 0.891435C8.05069 0.688808 8.05069 0.361188 7.84796 0.158562C7.64534 -0.0440649 7.31772 -0.0440649 7.11509 0.158562L3.99996 3.2737L0.884914 0.158562C0.682192 -0.0440649 0.354668 -0.0440649 0.152041 0.158562C-0.0506804 0.361188 -0.0506804 0.688808 0.152041 0.891435L3.26708 4.00657L0.152041 7.12171C-0.0506804 7.32433 -0.0506804 7.65195 0.152041 7.85458C0.253022 7.95566 0.385797 8.00643 0.518478 8.00643C0.651158 8.00643 0.783838 7.95566 0.884914 7.85458L3.99996 4.73944L7.11509 7.85458C7.21617 7.95566 7.34885 8.00643 7.48153 8.00643C7.61421 8.00643 7.74689 7.95566 7.84796 7.85458C8.05069 7.65195 8.05069 7.32433 7.84796 7.12171L4.73292 4.00657Z" fill="white"/>
</g>
<defs>
<clipPath id="clip0_233_500">
<rect width="8" height="8" fill="white"/>
</clipPath>
</defs>
</svg>
