<svg width="16" height="17" viewBox="0 0 16 17" fill="none" xmlns="http://www.w3.org/2000/svg">
    <path d="M10 3H3C2.17157 3 1.5 3.67157 1.5 4.5V14.5C1.5 15.3284 2.17157 16 3 16H10C10.8284 16 11.5 15.3284 11.5 14.5V4.5C11.5 3.67157 10.8284 3 10 3Z"
          fill="#686868"/>
    <path d="M14.4998 2.5V12.5C14.4987 12.8975 14.3402 13.2783 14.0592 13.5593C13.7781 13.8404 13.3973 13.9988 12.9998 14H12.4998V4.5C12.4998 3.83696 12.2365 3.20107 11.7676 2.73223C11.2988 2.26339 10.6629 2 9.99984 2H4.58984C4.693 1.70823 4.88388 1.4555 5.13631 1.27647C5.38874 1.09744 5.69037 1.00087 5.99984 1H12.9998C13.3973 1.00119 13.7781 1.1596 14.0592 1.44065C14.3402 1.7217 14.4987 2.10254 14.4998 2.5Z"
          fill="#686868"/>
</svg>
