<svg width="28" height="28" viewBox="0 0 28 28" fill="none" xmlns="http://www.w3.org/2000/svg">
<path d="M27 17H24.96V11H27C27.2652 11 27.5196 10.8946 27.7071 10.7071C27.8946 10.5196 28 10.2652 28 10C28 9.73478 27.8946 9.48043 27.7071 9.29289C27.5196 9.10536 27.2652 9 27 9H24.96V6.04C24.9605 5.64589 24.8833 5.25554 24.7327 4.89133C24.5821 4.52711 24.3612 4.19619 24.0825 3.91751C23.8038 3.63882 23.4729 3.41787 23.1087 3.26729C22.7445 3.11671 22.3541 3.03947 21.96 3.04H19V1C19 0.734784 18.8946 0.48043 18.7071 0.292893C18.5196 0.105357 18.2652 0 18 0C17.7348 0 17.4804 0.105357 17.2929 0.292893C17.1054 0.48043 17 0.734784 17 1V3.04H11V1C11 0.734784 10.8946 0.48043 10.7071 0.292893C10.5196 0.105357 10.2652 0 10 0C9.73478 0 9.48043 0.105357 9.29289 0.292893C9.10536 0.48043 9 0.734784 9 1V3.04H6.04C5.64589 3.03947 5.25554 3.11671 4.89133 3.26729C4.52711 3.41787 4.19619 3.63882 3.91751 3.91751C3.63882 4.19619 3.41787 4.52711 3.26729 4.89133C3.11671 5.25554 3.03947 5.64589 3.04 6.04V9H1C0.734784 9 0.48043 9.10536 0.292893 9.29289C0.105357 9.48043 0 9.73478 0 10C0 10.2652 0.105357 10.5196 0.292893 10.7071C0.48043 10.8946 0.734784 11 1 11H3.04V17H1C0.734784 17 0.48043 17.1054 0.292893 17.2929C0.105357 17.4804 0 17.7348 0 18C0 18.2652 0.105357 18.5196 0.292893 18.7071C0.48043 18.8946 0.734784 19 1 19H3.04V21.96C3.03947 22.3541 3.11671 22.7445 3.26729 23.1087C3.41787 23.4729 3.63882 23.8038 3.91751 24.0825C4.19619 24.3612 4.52711 24.5821 4.89133 24.7327C5.25554 24.8833 5.64589 24.9605 6.04 24.96H9V27C9 27.2652 9.10536 27.5196 9.29289 27.7071C9.48043 27.8946 9.73478 28 10 28C10.2652 28 10.5196 27.8946 10.7071 27.7071C10.8946 27.5196 11 27.2652 11 27V24.96H17V27C17 27.2652 17.1054 27.5196 17.2929 27.7071C17.4804 27.8946 17.7348 28 18 28C18.2652 28 18.5196 27.8946 18.7071 27.7071C18.8946 27.5196 19 27.2652 19 27V24.96H21.96C22.3541 24.9605 22.7445 24.8833 23.1087 24.7327C23.4729 24.5821 23.8038 24.3612 24.0825 24.0825C24.3612 23.8038 24.5821 23.4729 24.7327 23.1087C24.8833 22.7445 24.9605 22.3541 24.96 21.96V19H27C27.2621 18.9953 27.5119 18.8879 27.6956 18.7009C27.8793 18.5138 27.9823 18.2622 27.9823 18C27.9823 17.7378 27.8793 17.4862 27.6956 17.2991C27.5119 17.1121 27.2621 17.0047 27 17ZM20 18C19.9984 18.53 19.7872 19.0378 19.4125 19.4125C19.0378 19.7872 18.53 19.9984 18 20H10C9.47005 19.9984 8.96224 19.7872 8.58751 19.4125C8.21277 19.0378 8.00156 18.53 8 18V10C8.00155 9.47004 8.21276 8.96223 8.5875 8.5875C8.96223 8.21276 9.47004 8.00155 10 8H18C18.53 8.00155 19.0378 8.21276 19.4125 8.5875C19.7872 8.96223 19.9985 9.47004 20 10V18ZM10 10H18V18H10V10Z" fill="#88E207"/>
</svg>
