<svg width="32" height="32" viewBox="0 0 32 32" fill="none" xmlns="http://www.w3.org/2000/svg">
<rect width="32" height="32" rx="4" fill="#535353"/>
<g clip-path="url(#clip0_101_6715)">
<path d="M26.1704 20.2752V11.8352C26.1716 11.6554 26.1432 11.4766 26.0864 11.3052C25.7783 11.4795 17.5698 16.0289 17.0249 16.3352V26.2702C17.1748 26.2274 17.3193 26.1687 17.4554 26.0952L25.1939 21.8752C25.4901 21.7139 25.7364 21.481 25.9078 21.2001C26.0793 20.9192 26.1699 20.6001 26.1704 20.2752V20.2752Z" fill="#F7F7F7"/>
<path d="M17.4817 5.91516C17.1842 5.7482 16.8452 5.66016 16.5 5.66016C16.1547 5.66016 15.8157 5.7482 15.5182 5.91516C15.5182 5.91516 7.59596 10.3602 7.51196 10.4302L16.5 15.4702C16.9723 15.2128 25.4233 10.515 25.5247 10.4602C25.4302 10.3752 17.4817 5.91516 17.4817 5.91516V5.91516Z" fill="#F7F7F7"/>
<path d="M6.82964 11.8351V20.1601C6.8297 20.4815 6.9179 20.7972 7.08549 21.0761C7.25308 21.355 7.49426 21.5873 7.78514 21.7501L15.5131 26.0851C15.6571 26.1674 15.8127 26.2297 15.9751 26.2701V16.3351C15.4175 16.02 7.24906 11.4504 6.92939 11.2651C6.8619 11.4482 6.82816 11.6411 6.82964 11.8351V11.8351Z" fill="#F7F7F7"/>
</g>
<defs>
<clipPath id="clip0_101_6715">
<rect width="21" height="22" fill="white" transform="translate(6 5)"/>
</clipPath>
</defs>
</svg>
