<svg width="32" height="32" viewBox="0 0 32 32" fill="none" xmlns="http://www.w3.org/2000/svg">
    <path d="M30.7358 22.2184V9.94205C30.7376 9.68059 30.6944 9.42048 30.6078 9.17114C30.1383 9.42469 17.6301 16.042 16.7998 16.4875V30.9384C17.0283 30.8762 17.2483 30.7908 17.4558 30.6839L29.2478 24.5457C29.6992 24.3111 30.0744 23.9724 30.3357 23.5638C30.597 23.1551 30.735 22.6911 30.7358 22.2184V22.2184Z"
          fill="#88E207"/>
    <path d="M17.4957 1.33111C17.0424 1.08828 16.5259 0.960205 15.9997 0.960205C15.4736 0.960205 14.957 1.08828 14.5037 1.33111C14.5037 1.33111 2.43171 7.79657 2.30371 7.89839L15.9997 15.2293C16.7195 14.855 29.5972 8.02182 29.7517 7.94202C29.6077 7.81839 17.4957 1.33111 17.4957 1.33111V1.33111Z"
          fill="#88E207"/>
    <path d="M1.26374 9.94213V22.0512C1.26384 22.5186 1.39824 22.9779 1.65362 23.3835C1.909 23.7892 2.2765 24.1271 2.71974 24.3639L14.4957 30.6694C14.7152 30.789 14.9522 30.8797 15.1997 30.9385V16.4876C14.35 16.0292 1.90287 9.38256 1.41574 9.11304C1.31291 9.37938 1.26149 9.65987 1.26374 9.94213V9.94213Z"
          fill="#88E207"/>
</svg>
