<svg width="4" height="14" viewBox="0 0 4 14" fill="none" xmlns="http://www.w3.org/2000/svg">
<path d="M0 1.875C0 0.84125 0.84125 0 1.875 0C2.90875 0 3.75 0.84125 3.75 1.875C3.75 2.90875 2.90875 3.75 1.875 3.75C0.84125 3.75 0 2.90875 0 1.875ZM1.875 5C0.84125 5 0 5.84125 0 6.875C0 7.90875 0.84125 8.75 1.875 8.75C2.90875 8.75 3.75 7.90875 3.75 6.875C3.75 5.84125 2.90875 5 1.875 5ZM1.875 10C0.84125 10 0 10.8413 0 11.875C0 12.9087 0.84125 13.75 1.875 13.75C2.90875 13.75 3.75 12.9087 3.75 11.875C3.75 10.8413 2.90875 10 1.875 10Z" fill="#F7F7F7"/>
</svg>
