<svg width="16" height="16" viewBox="0 0 16 16" fill="none" xmlns="http://www.w3.org/2000/svg">
    <path d="M9.90728 3L1.97128 10.9364C1.93135 10.9765 1.90252 11.027 1.88879 11.0814L1.00916 14.612C0.98285 14.7182 1.01408 14.8313 1.09165 14.9088C1.15033 14.9675 1.2303 15 1.3121 15C1.33715 15 1.36278 14.9969 1.38772 14.9906L4.91836 14.1109C4.97339 14.0972 5.02338 14.0684 5.06331 14.0285L13 6.09266L9.90728 3Z"
          fill="#ffffff"/>
    <path d="M14.605 2.14872L13.8422 1.38343C13.3323 0.871943 12.4437 0.872438 11.9345 1.38343L11 2.32087L13.6706 5L14.605 4.06256C14.8597 3.80716 15 3.46723 15 3.10569C15 2.74415 14.8597 2.40422 14.605 2.14872Z"
          fill="#ffffff"/>
</svg>
