<svg width="40" height="40" viewBox="0 0 40 40" fill="none" xmlns="http://www.w3.org/2000/svg">
<g clip-path="url(#clip0_532_1235)">
<path fill-rule="evenodd" clip-rule="evenodd" d="M4.57712 2.56211e-06C4.57712 0.427443 4.57712 2.18905 4.57712 2.18905H2.38805C2.38805 2.65535 2.38805 4.57712 2.38805 4.57712H0V35.4229H2.38805V37.612H4.57712V40H35.4229V37.612H37.8109V35.4229H40V4.57712H37.8109V2.18905H35.4229V0L4.57712 2.56211e-06Z" fill="#88E207"/>
<path fill-rule="evenodd" clip-rule="evenodd" d="M16.9155 14.3285V12.3384H6.96521V27.4627H16.9155V25.4727H18.9055V14.3285H16.9155ZM8.95526 25.4727H16.9155V14.3285H8.95526V25.4727Z" fill="#161616"/>
<path d="M21.0945 12.3384H31.0447V14.3285H23.0845V18.9055H31.0447V20.8955H33.0347V27.4627H31.0447V22.8857H29.0546V20.8955H23.0845V27.4627H21.0945V12.3384Z" fill="#161616"/>
<path d="M31.0448 18.9054H33.0348V14.3284H31.0448V18.9054Z" fill="#161616"/>
</g>
<defs>
<clipPath id="clip0_532_1235">
<rect width="40" height="40" fill="white"/>
</clipPath>
</defs>
</svg>
