<svg width="26" height="26" viewBox="0 0 26 26" fill="none" xmlns="http://www.w3.org/2000/svg">
<g clip-path="url(#clip0_1_1751)">
<path d="M13 0.541626C5.8175 0.541626 0 6.27149 0 13.3383C0 18.9933 3.7245 23.7888 8.88875 25.4796C9.53875 25.6 9.77708 25.2039 9.77708 24.8642C9.77708 24.5604 9.76625 23.7552 9.76083 22.6884C6.14467 23.46 5.382 20.9716 5.382 20.9716C4.7905 19.4947 3.93575 19.0997 3.93575 19.0997C2.75817 18.3064 4.02675 18.3226 4.02675 18.3226C5.33217 18.4116 6.01792 19.6412 6.01792 19.6412C7.17708 21.5978 9.061 21.0324 9.80417 20.7057C9.92117 19.8777 10.2559 19.3145 10.6275 18.9944C7.74042 18.6743 4.706 17.5739 4.706 12.6709C4.706 11.2743 5.20975 10.1326 6.04392 9.23734C5.89767 8.91395 5.45892 7.6128 6.15767 5.85043C6.15767 5.85043 7.24642 5.50751 9.73267 7.16244C10.7727 6.87812 11.8777 6.73704 12.9827 6.73053C14.0877 6.73704 15.1927 6.87812 16.2327 7.16244C18.7027 5.50751 19.7914 5.85043 19.7914 5.85043C20.4902 7.6128 20.0514 8.91395 19.9214 9.23734C20.7502 10.1326 21.2539 11.2743 21.2539 12.6709C21.2539 17.5869 18.2152 18.6688 15.3227 18.9835C15.7777 19.3677 16.2002 20.1523 16.2002 21.3514C16.2002 23.0639 16.1839 24.4399 16.1839 24.8556C16.1839 25.1909 16.4114 25.5913 17.0777 25.4633C22.2788 23.7834 26 18.9846 26 13.3383C26 6.27149 20.1793 0.541626 13 0.541626Z" fill="#F7F7F7"/>
</g>
<defs>
<clipPath id="clip0_1_1751">
<rect width="26" height="26" fill="white"/>
</clipPath>
</defs>
</svg>
