<svg width="28" height="24" viewBox="0 0 28 24" fill="none" xmlns="http://www.w3.org/2000/svg">
    <path d="M27.71 5.01996L26.81 4.12C26.6186 3.92707 26.3512 3.84963 26.0916 3.82996H4.68945V1.24121C4.68945 0.688965 4.24219 0.241211 3.68945 0.241211H1C0.447266 0.241211 0 0.688965 0 1.24121C0 1.79346 0.447266 2.24121 1 2.24121H2.68945V22.7588C2.68945 23.311 3.13672 23.7588 3.68945 23.7588C4.24219 23.7588 4.68945 23.311 4.68945 22.7588V20.17H26.0913C26.3541 20.1864 26.6031 20.0535 26.81 19.88L27.71 18.98C27.8945 18.8006 27.9948 18.5322 28 18.28V5.71997C28 5.64931 27.8721 5.17685 27.71 5.01996ZM24.67 12C24.67 14.48 22.65 16.5 20.17 16.5C17.69 16.5 15.67 14.48 15.67 12C15.67 9.51996 17.69 7.5 20.17 7.5C22.65 7.5 24.67 9.51996 24.67 12ZM10.69 13H7.69C7.14001 13 6.69 12.55 6.69 12C6.69 11.45 7.14001 11 7.69 11H10.69C11.24 11 11.69 11.45 11.69 12C11.69 12.55 11.24 13 10.69 13ZM11.69 15.5C11.69 16.05 11.24 16.5 10.69 16.5H7.69C7.14001 16.5 6.69 16.05 6.69 15.5C6.69 14.95 7.14001 14.5 7.69 14.5H10.69C11.24 14.5 11.69 14.95 11.69 15.5ZM10.69 9.5H7.69C7.14001 9.5 6.69 9.04999 6.69 8.5C6.69 7.95001 7.14001 7.5 7.69 7.5H10.69C11.24 7.5 11.69 7.95001 11.69 8.5C11.69 9.04999 11.24 9.5 10.69 9.5Z"
          fill="#88E207"/>
</svg>
