<svg width="20" height="20" viewBox="0 0 20 20" fill="none" xmlns="http://www.w3.org/2000/svg">
<g clip-path="url(#clip0_1_1820)">
<path d="M5.40756 7.76035L1.39206 11.7749C-0.46402 13.6307 -0.46402 16.6501 1.39206 18.5059L1.49231 18.6061C2.39151 19.5049 3.58688 20 4.85855 20C6.13022 20 7.32574 19.5049 8.22479 18.6061L12.0885 14.7434C11.8054 14.7843 11.5176 14.8053 11.2265 14.8053C10.4256 14.8053 9.64905 14.6476 8.93219 14.347L6.49857 16.78C6.06049 17.2179 5.47806 17.4591 4.85855 17.4591C4.2392 17.4591 3.65677 17.218 3.21869 16.7801C2.78122 16.3428 2.54028 15.7605 2.54028 15.1404C2.54028 14.5204 2.78122 13.938 3.21854 13.5007L7.13379 9.58652C7.57187 9.14844 8.1543 8.90735 8.7738 8.90735C9.37286 8.90735 9.93683 9.13333 10.3696 9.54425C10.3853 9.55707 10.4004 9.57065 10.415 9.5853C10.6319 9.80197 10.92 9.9213 11.2265 9.9213C11.5329 9.9213 11.8211 9.80197 12.0378 9.5853L12.9144 8.70898C12.7235 8.40289 12.4982 8.11832 12.2403 7.8606L12.1402 7.7605C11.241 6.86145 10.0455 6.36646 8.77396 6.36646C7.50229 6.36646 6.30676 6.86145 5.40756 7.76035Z" fill="#88E207"/>
<path d="M18.6082 8.2251C19.5058 7.32788 20.0001 6.13266 20.0001 4.85962C20.0001 3.58673 19.5057 2.39151 18.6082 1.49414L18.5081 1.39404C17.6089 0.495148 16.4133 0 15.1417 0C13.8701 0 12.6746 0.495148 11.7754 1.39404L7.91174 5.25665C8.19479 5.21576 8.48273 5.1947 8.77386 5.1947C9.57465 5.1947 10.3512 5.35263 11.068 5.65308L13.5016 3.22006C13.9397 2.78214 14.5222 2.54089 15.1417 2.54089C15.7612 2.54089 16.3436 2.78198 16.7817 3.22006C17.2191 3.65738 17.4599 4.23965 17.4599 4.85962C17.4599 5.47974 17.2191 6.06201 16.7817 6.49918L12.8664 10.4135C12.4283 10.8516 11.8459 11.0927 11.2264 11.0927C10.6275 11.0927 10.0635 10.8667 9.6308 10.4558C9.61508 10.443 9.59982 10.4294 9.58517 10.4147C9.3685 10.1981 9.08026 10.0787 8.77386 10.0787C8.46732 10.0787 8.17923 10.1981 7.96255 10.4147L7.08594 11.2912C7.27667 11.5971 7.50204 11.8816 7.75992 12.1394L7.86017 12.2397C8.75937 13.1386 9.95474 13.6336 11.2264 13.6336C12.4981 13.6336 13.6936 13.1386 14.5927 12.2397L18.6082 8.2251Z" fill="#88E207"/>
</g>
<defs>
<clipPath id="clip0_1_1820">
<rect width="20" height="20" fill="white"/>
</clipPath>
</defs>
</svg>
