<svg width="116" height="40" viewBox="0 0 116 40" fill="none" xmlns="http://www.w3.org/2000/svg">
    <path d="M60.34 11.72V13.6H52.82V11.72H60.34ZM60.34 15.48V13.6H62.22V15.48H60.34ZM62.22 24.12H60.34V22.24H62.22V24.12ZM52.82 26V24.12H60.34V26H52.82ZM50.94 13.6H52.82V24.12H50.94V13.6ZM73.5241 24.12V26H65.9841V24.12H73.5241ZM64.1041 11.72H65.9841V24.12H64.1041V11.72ZM79.1927 24.12H77.3127V22.24H79.1927V24.12ZM84.8327 26H79.1927V24.12H84.8327V26ZM77.3127 22.24H75.4127V15.48H77.3127V22.24ZM84.8327 24.12H86.7327V22.24H84.8327V24.12ZM86.7327 22.24H88.6127V15.48H86.7327V22.24ZM84.8327 13.6H86.7327V15.48H84.8327V13.6ZM79.1927 11.72H84.8327V13.6H79.1927V11.72ZM79.1927 13.6H77.3127V15.48H79.1927V13.6ZM99.9108 24.12V26H92.3708V24.12H99.9108ZM90.4908 11.72H92.3708V24.12H90.4908V11.72ZM99.9108 11.72H101.791V24.12H99.9108V11.72ZM105.554 24.12H113.094V26H103.674V11.72H113.094V13.6H105.554V24.1V24.12ZM113.094 13.6V24.12H114.974V13.6H113.094Z"
          fill="white"/>
    <g clip-path="url(#clip0_1_1734)">
        <path fill-rule="evenodd" clip-rule="evenodd"
              d="M4.57712 2.56211e-06C4.57712 0.427443 4.57712 2.18905 4.57712 2.18905H2.38805C2.38805 2.65535 2.38805 4.57712 2.38805 4.57712H0V35.4229H2.38805V37.612H4.57712V40H35.4229V37.612H37.8109V35.4229H40V4.57712H37.8109V2.18905H35.4229V0L4.57712 2.56211e-06Z"
              fill="#88E207"/>
        <path fill-rule="evenodd" clip-rule="evenodd"
              d="M16.9151 14.3283V12.3383H6.96484V27.4626H16.9151V25.4726H18.9051V14.3283H16.9151ZM8.9549 25.4726H16.9151V14.3283H8.9549V25.4726Z"
              fill="#161616"/>
        <path d="M21.0938 12.3383H31.044V14.3283H23.0838V18.9054H31.044V20.8954H33.034V27.4626H31.044V22.8856H29.0539V20.8954H23.0838V27.4626H21.0938V12.3383Z"
              fill="#161616"/>
        <path d="M31.0449 18.9054H33.0349V14.3284H31.0449V18.9054Z" fill="#161616"/>
    </g>
    <defs>
        <clipPath id="clip0_1_1734">
            <rect width="40" height="40" fill="white"/>
        </clipPath>
    </defs>
</svg>
