<svg width="20" height="24" viewBox="0 0 20 24" fill="none" xmlns="http://www.w3.org/2000/svg">
<g clip-path="url(#clip0_1_1835)">
<path d="M17.054 7.0133L15.2702 8.7733C18.1891 11.6533 18.1891 16.2933 15.2702 19.12C12.3513 22 7.6486 22 4.78373 19.12C1.86481 16.24 1.86481 11.6 4.78373 8.7733L9.40535 4.2133L10.054 3.5733V0.133301L3.08103 7.0133C-0.810864 10.8533 -0.810864 17.04 3.08103 20.88C6.97292 24.72 13.2432 24.72 17.054 20.88C20.9459 17.0133 20.9459 10.8533 17.054 7.0133Z" fill="#88E207"/>
<path d="M14.8641 5.30686C14.8641 6.01379 14.2833 6.58686 13.5668 6.58686C12.8503 6.58686 12.2695 6.01379 12.2695 5.30686C12.2695 4.59992 12.8503 4.02686 13.5668 4.02686C14.2833 4.02686 14.8641 4.59992 14.8641 5.30686Z" fill="#88E207"/>
</g>
<defs>
<clipPath id="clip0_1_1835">
<rect width="20" height="24" fill="white"/>
</clipPath>
</defs>
</svg>
