<svg width="16" height="16" viewBox="0 0 16 16" fill="none" xmlns="http://www.w3.org/2000/svg">
<path d="M7.29362 1.28754C3.98781 1.28754 1.29492 3.98042 1.29492 7.28624C1.29492 10.592 3.98781 13.2902 7.29362 13.2902C8.70563 13.2902 10.0042 12.7953 11.0306 11.9737L13.5293 14.4711C13.6554 14.592 13.8238 14.6587 13.9985 14.6569C14.1731 14.6551 14.3402 14.585 14.4638 14.4616C14.5874 14.3382 14.6577 14.1713 14.6597 13.9966C14.6618 13.822 14.5953 13.6534 14.4746 13.5272L11.9759 11.0285C12.7982 10.0005 13.2936 8.69989 13.2936 7.28624C13.2936 3.98042 10.5994 1.28754 7.29362 1.28754ZM7.29362 2.62089C9.87885 2.62089 11.959 4.70102 11.959 7.28624C11.959 9.87147 9.87885 11.9568 7.29362 11.9568C4.7084 11.9568 2.62826 9.87147 2.62826 7.28624C2.62826 4.70102 4.7084 2.62089 7.29362 2.62089Z" fill="#fff"/>
</svg>
