<svg width="14" height="12" viewBox="0 0 14 12" fill="none" xmlns="http://www.w3.org/2000/svg">
<path d="M13.3132 0.734253H0.686836C0.309076 0.734253 0 1.04333 0 1.42109V10.5789C0 10.9567 0.309076 11.2657 0.686836 11.2657H13.3132C13.6909 11.2657 14 10.9567 14 10.5789V1.42109C14 1.04333 13.6909 0.734253 13.3132 0.734253ZM4.87653 5.61079L2.62142 7.8659C2.42682 8.0605 2.14064 8.12918 1.90025 8.02616C1.40801 7.82011 1.32788 7.22485 1.65985 6.89288L2.94195 5.61079C3.20523 5.3475 3.20523 4.9125 2.94195 4.63777L1.64841 3.35568C1.31643 3.02371 1.39657 2.42845 1.8888 2.2224C2.14064 2.11937 2.42682 2.18806 2.60998 2.38266L4.86509 4.63777C5.00245 4.77514 5.07114 4.94685 5.07114 5.11855C5.07114 5.29026 5.0139 5.47342 4.87653 5.61079ZM9.90188 8.0605H5.78087C5.40311 8.0605 5.09403 7.75142 5.09403 7.37366C5.09403 6.99591 5.40311 6.68683 5.78087 6.68683H9.90188C10.2796 6.68683 10.5887 6.99591 10.5887 7.37366C10.5887 7.75142 10.2796 8.0605 9.90188 8.0605Z" fill="#1E1E1E"/>
</svg>
