<svg width="24" height="24" viewBox="0 0 24 24" fill="none" xmlns="http://www.w3.org/2000/svg">
<g clip-path="url(#clip0_101_1983)">
<path d="M23.0516 16.6639V7.4566C23.053 7.2605 23.0206 7.06542 22.9556 6.87842C22.6035 7.06858 13.2223 12.0316 12.5996 12.3657V23.2039C12.771 23.1572 12.936 23.0932 13.0916 23.013L21.9356 18.4093C22.2741 18.2334 22.5556 17.9794 22.7515 17.6729C22.9475 17.3664 23.051 17.0184 23.0516 16.6639Z" fill="#88E207"/>
<path d="M13.1225 0.998397C12.7825 0.816268 12.3951 0.720215 12.0005 0.720215C11.6059 0.720215 11.2185 0.816268 10.8785 0.998397C10.8785 0.998397 1.82452 5.84749 1.72852 5.92385L12.0005 11.422C12.5404 11.1413 22.1986 6.01643 22.3145 5.95658C22.2065 5.86385 13.1225 0.998397 13.1225 0.998397Z" fill="#88E207"/>
<path d="M0.947319 7.45653V16.5384C0.947394 16.8889 1.04819 17.2333 1.23972 17.5376C1.43126 17.8418 1.70689 18.0953 2.03932 18.2729L10.8713 23.002C11.0359 23.0917 11.2137 23.1597 11.3993 23.2038V12.3656C10.762 12.0218 1.42667 7.03686 1.06132 6.83472C0.984196 7.03447 0.945628 7.24484 0.947319 7.45653Z" fill="#88E207"/>
</g>
<defs>
<clipPath id="clip0_101_1983">
<rect width="24" height="24" fill="white"/>
</clipPath>
</defs>
</svg>
