<svg width="11" height="12" viewBox="0 0 11 12" fill="none" xmlns="http://www.w3.org/2000/svg">
<g style="mix-blend-mode:overlay" opacity="0.25">
<path fill-rule="evenodd" clip-rule="evenodd" d="M7.00209 12.6987C7.19109 12.7727 7.40661 12.768 7.59738 12.6757L10.068 11.4808C10.3276 11.3553 10.4926 11.0912 10.4926 10.8014V2.6987C10.4926 2.40897 10.3276 2.14488 10.068 2.0193L7.59738 0.824284C7.34702 0.703197 7.05402 0.732863 6.8343 0.893429C6.8029 0.916372 6.77301 0.941978 6.74494 0.970199L2.01529 5.30755L-0.0448719 3.73561C-0.236644 3.58928 -0.504892 3.60127 -0.683004 3.76413L-1.34377 4.3683C-1.56163 4.56752 -1.56188 4.91205 -1.3443 5.11159L0.442316 6.75001L-1.3443 8.38844C-1.56188 8.58798 -1.56163 8.93251 -1.34377 9.13172L-0.683004 9.7359C-0.504892 9.89875 -0.236644 9.91069 -0.0448719 9.76442L2.01529 8.19249L6.74494 12.5298C6.81978 12.6051 6.90762 12.6617 7.00209 12.6987ZM7.4945 4.01175L3.90577 6.75001L7.4945 9.48826V4.01175Z" fill="#7599E0"/>
</g>
</svg>
