<svg width="15" height="15" viewBox="0 0 15 15" fill="none" xmlns="http://www.w3.org/2000/svg">
<g style="mix-blend-mode:overlay" opacity="1">
<path fill-rule="evenodd" clip-rule="evenodd" d="M9.83612 15.9316C10.0881 16.0303 10.3755 16.024 10.6298 15.9009L13.924 14.3077C14.2702 14.1403 14.4902 13.7882 14.4902 13.4019V2.59827C14.4902 2.21196 14.2702 1.85983 13.924 1.69239L10.6298 0.0990455C10.296 -0.0624039 9.90535 -0.0228496 9.61239 0.191239C9.57054 0.221829 9.53068 0.255971 9.49326 0.293599L3.18705 6.07673L0.440171 3.98081C0.184475 3.78571 -0.173189 3.80169 -0.410672 4.01884L-1.29169 4.82439C-1.58217 5.09003 -1.58251 5.5494 -1.29241 5.81545L1.08975 8.00001L-1.29241 10.1846C-1.58251 10.4506 -1.58217 10.91 -1.29169 11.1756L-0.410672 11.9812C-0.173189 12.1983 0.184475 12.2142 0.440171 12.0192L3.18705 9.92332L9.49326 15.7064C9.59303 15.8068 9.71015 15.8823 9.83612 15.9316ZM10.4927 4.349L5.70769 8.00001L10.4927 11.651V4.349Z" fill="#ffffff"/>
</g>
</svg>
